**ABCDEFGHIJKLMNOPQRSTUVWXYZabcdefghijklmnopqrstuvwxyz**************************
**PARASOLID !"#$%&'()*+,-./:;<=>?@[\]^_`{|}~0123456789**************************
**PART1;
MC=x64/Windows NT;
MC_MODEL=genuineintel family 6 model 14 stepping 3, intel(r) core(tm) i7-6700k cpu @ 4.00ghz;
MC_ID=bens_super_pc;
OS=windows nt (x64);
OS_RELEASE=6.3 windows 10 pro (build 17763) ;
FRU=mdc_ugii_v7.0_djl_can_vrh;
APPL=unigraphics;
SITE=unknown;
USER=Ben;
FORMAT=text;
GUISE=transmit;
KEY=UM7 Upper Housing;
FILE=E:\Parts\UM7 Upper Housing.x_t;
DATE=8-aug-2019;
**PART2;
SCH=SCH_2900123_28101;
USFLD_SIZE=0;
**PART3;
**END_OF_HEADER*****************************************************************
T51 : TRANSMIT FILE created by modeller version 290012323 SCH_2900123_28101_1300
6203 0 12 33 CCCCCCI4 mesh1006 0 I8 polyline1008 0 CCCCCCCDI5 owner1040 0 CCCCCC
I13 boundary_mesh1006 0 I17 boundary_polyline1008 0 CCCA16 index_map_offset0 0 1
 dA9 index_map82 0 A17 node_id_index_map82 0 A20 schema_embedding_map82 0 A5 chi
ld12 0 A14 lowest_node_id0 0 1 dZ1 2826 2 3 0 0 0 0 0 0 1e3 1e-8 0 0 0 1 0 1 1 4
 5 6 7 0 0 8 9 10 0 0 0 0 0 0 81 255 1 2 2826 11 1 12 0 0 0 13 70 11 CI9 list_ty
pe0 0 1 uI10 notransmit0 0 1 lCCCDCCDI12 finger_index0 0 1 dI12 finger_block1012
 0 CZ3 0 4 T1 0 0 6 20 1 14 14 13 255 4 3 0 1 0 15 0 0 16 0 51 255 5 2651 0 17 1
8 0 0 +.0217 .0319 .008 0 0 1 .003 1 0 0 30 255 6 2653 0 19 20 0 0 -.0187 .0319
 -.06869 0 0 1 29 255 7 2241 0 10 21 0 .0187 .0319 -.0055 19 8 CCCCCCCA5 owner12
 0 Z8 1 0 1 16 0 22 V0 16 255 9 2300 23 ?24 0 25 26 0 0 1 18 255 10 2239 0 27 0
 28 7 ?1 17 255 27 0 29 24 30 10 31 32 0 33 +18 28 2236 0 34 10 35 21 ?1 17 34 0
 29 36 37 28 38 39 0 40 +18 35 2223 0 41 28 42 43 ?1 29 21 2238 0 28 43 7 .0067
 .0319 -.0055 29 43 2225 0 35 44 21 .0187 .0319 -.0035 29 44 2222 0 42 45 43 .00
67 .0319 -.0035 18 42 2220 0 46 35 47 44 ?1 29 45 2209 0 47 48 44 .0157 .0349 -.
0035 18 47 2207 0 49 42 50 45 ?1 29 48 2206 0 50 51 45 .0097 .0349 -.0035 18 50
 2204 0 52 47 53 48 ?1 29 51 2203 0 53 54 48 .0097 .0349 -.0055 18 53 2201 0 36
 50 55 51 ?1 29 54 2200 0 55 56 51 .0157 .0349 -.0055 18 55 2198 0 31 53 57 54 ?
1 29 56 2190 0 57 58 54 .0037 .0289 -.0035 18 57 2188 0 59 55 60 56 ?1 29 58 218
0 0 60 61 56 .0217 .0289 -.0035 18 60 2178 0 62 57 63 58 ?1 29 61 2177 0 63 64 5
8 .0037 .0289 -.0055 18 63 2174 0 38 60 65 61 ?1 29 64 2173 0 65 66 61 .0217 .02
89 -.0055 18 65 2170 0 24 63 67 64 ?1 29 66 2151 0 67 68 64 .0067 -.0065 -.0055
 18 67 2149 0 69 65 70 66 ?1 29 68 2148 0 70 71 66 .0187 -.0065 -.0055 18 70 214
6 0 72 67 73 68 ?1 29 71 2135 0 73 74 68 .0097 -.0095 -.0055 18 73 2133 0 75 70
 76 71 ?1 29 74 2132 0 76 77 71 .0157 -.0095 -.0055 18 76 2130 0 78 73 79 74 ?1
 29 77 2119 0 79 80 74 .0187 -.0065 -.0035 18 79 2117 0 81 76 82 77 ?1 29 80 211
6 0 82 83 77 .0157 -.0095 -.0035 18 82 2114 0 84 79 85 80 ?1 29 83 2113 0 85 86
 80 .0097 -.0095 -.0035 18 85 2111 0 87 82 88 83 ?1 29 86 2110 0 88 89 83 .0067
 -.0065 -.0035 18 88 2108 0 90 85 91 86 ?1 29 89 2100 0 91 92 86 .0217 -.0035 -.
0035 18 91 2098 0 93 88 94 89 ?1 29 92 2090 0 94 95 89 .0037 -.00349999999999996
5 -.0035 18 94 2088 0 96 91 97 92 ?1 29 95 2087 0 97 98 92 .0037 -.0034999999999
99955 -.0055 18 97 2084 0 99 94 100 95 ?1 29 98 2083 0 100 101 95 .0217 -.0035 -
.0055 18 100 2080 0 102 97 103 98 ?1 29 101 1743 0 103 104 98 .0289 .02517733534
54739 5e-4 18 103 1741 0 105 100 106 101 ?1 29 104 1377 0 106 107 101 -.0035 .01
8721660284801 -.0055 18 106 1374 0 108 103 109 104 ?1 29 107 1057 0 109 110 104
 .0259 .0259 -.004 18 109 1054 0 111 106 112 107 ?1 29 110 1032 0 112 113 107 -.
00200000000000003 .0274 -.0055 18 112 1030 0 114 109 115 110 ?1 29 113 151 0 115
 116 110 -5e-4 -5e-4 .005 18 115 149 0 117 112 118 113 ?1 29 116 17 0 118 119 11
3 .0289 -.0035 .008 18 118 15 0 120 115 121 116 ?1 29 119 12 0 121 122 116 .0289
 .0289 .008 18 121 10 0 123 118 124 119 ?1 29 122 7 0 124 125 119 -.0035 .0289 .
008 18 124 5 0 126 121 127 122 ?1 29 125 4 0 127 128 122 -.0035 -.0035 .008 18 1
27 2 0 129 124 130 125 ?1 29 128 338 0 131 132 125 .0259 -5e-4 .005 18 131 251 0
 133 134 135 128 ?1 29 132 339 0 135 136 128 .0259 .0259 .005 18 135 257 0 137 1
31 138 132 ?1 29 136 340 0 138 139 132 -5e-4 .0259 .005 18 138 247 0 140 135 141
 136 ?1 29 139 350 0 130 142 136 .0289 -.0035 -.0055 18 130 259 0 143 127 144 13
9 ?1 29 142 351 0 144 145 139 .0289 .0289 -.0055 18 144 258 0 146 130 147 142 ?1
 29 145 352 0 147 148 142 -.0035 .0289 -.0055 18 147 253 0 149 144 134 145 ?1 29
 148 353 0 134 150 145 -.0035 -.00349999999999995 -.0055 18 134 260 0 151 147 13
1 148 ?1 29 150 1297 0 152 153 148 .0274 .0274 -.0055 18 152 1204 0 154 155 156
 150 ?1 29 153 1298 0 156 157 150 .0274 -.002 -.0055 18 156 1202 0 158 152 159 1
53 ?1 29 157 1299 0 159 160 153 -.00200000000000003 -.001999999999999955 -.0055
 18 159 1213 0 161 156 162 157 ?1 29 160 1301 0 141 163 157 .0259 -.000499999999
999994 -.004 18 141 1211 0 164 138 165 160 ?1 29 163 1303 0 165 166 160 -.000500
000000000014 .0259 -.004 18 165 1200 0 167 141 168 163 ?1 29 166 1304 0 168 169
 163 -.000500000000000014 -.000499999999999993 -.004 18 168 1212 0 170 165 171 1
66 ?1 29 169 1305 0 171 172 166 .0274 .0274 -.004 18 171 1208 0 173 168 174 169
 ?1 29 172 1306 0 174 175 169 .0274 -.002 -.004 18 174 1207 0 176 171 177 172 ?1
 29 175 1307 0 177 178 172 -.00200000000000003 -.001999999999999955 -.004 18 177
 1203 0 179 174 155 175 ?1 29 178 1308 0 155 180 175 -.00200000000000003 .0274 -
.004 18 155 1209 0 181 177 152 178 ?1 29 180 1634 0 162 182 178 -.00050000000000
0014 .00667833971519911 -.004 18 162 1551 0 183 159 184 180 ?1 29 182 1635 0 184
 185 180 -.00200000000000003 .00667833971519911 -.004 18 184 1552 0 186 162 187
 182 ?1 29 185 1636 0 187 188 182 -.00200000000000003 .00667833971519911 -.0055
 18 187 1553 0 189 184 190 185 ?1 29 188 1637 0 190 191 185 -5e-4 .0066783397151
9912 5e-4 18 190 1550 0 192 187 193 188 ?1 29 191 1638 0 193 194 188 -.0035 .006
67833971519911 -.0055 18 193 1549 0 195 190 196 191 ?1 29 194 1639 0 196 197 191
 -.000500000000000014 .018721660284801 -.004 18 196 1558 0 198 193 199 194 ?1 29
 197 1640 0 199 200 194 -.00200000000000003 .018721660284801 -.004 18 199 1559 0
 201 196 202 197 ?1 29 200 1641 0 202 203 197 -.00200000000000003 .0187216602848
01 -.0055 18 202 1560 0 204 199 205 200 ?1 29 203 1642 0 205 206 200 -5e-4 .0187
21660284801 5e-4 18 205 1561 0 207 202 208 203 ?1 29 206 1644 0 208 209 203 -.00
35 .018721660284801 5e-4 18 208 1562 0 210 205 211 206 ?1 29 209 1647 0 211 212
 206 -.0035 .00667833971519912 5e-4 18 211 1555 0 213 208 214 209 ?1 29 212 1996
 0 214 215 209 .0289 .000222664654526147 5e-4 18 214 1934 0 216 211 217 212 ?1 2
9 215 1998 0 217 218 212 .0274 .0251773353454739 -.004 18 217 1929 0 219 214 220
 215 ?1 29 218 1999 0 220 221 215 .0259 .0251773353454739 -.004 18 220 1924 0 22
2 217 223 218 ?1 29 221 2000 0 223 224 218 .0274 .0251773353454739 -.0055 18 223
 1927 0 225 220 226 221 ?1 29 224 2001 0 226 227 221 .0259 .000222664654526147 -
.004 18 226 1926 0 228 223 229 224 ?1 29 227 2002 0 229 230 224 .0274 .000222664
654526147 -.004 18 229 1925 0 231 226 232 227 ?1 29 230 2003 0 232 233 227 .0274
 .000222664654526147 -.0055 18 232 1928 0 234 229 235 230 ?1 29 233 2004 0 235 2
36 230 .0259 .000222664654526147 5e-4 18 235 1933 0 237 232 238 233 ?1 29 236 20
05 0 238 239 233 .0259 .0251773353454739 5e-4 18 238 1935 0 240 235 241 236 ?1 2
9 239 2006 0 241 242 236 .0289 .0251773353454739 -.0055 18 241 1932 0 243 238 24
4 239 ?1 29 242 2007 0 244 0 239 .0289 .000222664654526147 -.0055 18 244 1930 0
 245 241 0 242 ?1 17 245 0 246 234 216 244 247 248 0 249 -15 255 246 1963 0 234
 250 0 17 234 0 246 231 245 232 249 251 0 252 -17 216 0 246 245 253 214 237 254
 0 255 -17 247 0 256 257 258 214 245 248 0 0 +16 248 1910 259 ?247 260 261 262 0
 0 1 17 249 0 263 143 264 244 234 251 0 258 +15 263 1782 0 265 266 0 17 143 0 26
3 267 249 130 258 268 0 269 +17 264 0 263 249 270 232 271 272 0 0 +16 251 1906 2
73 ?249 274 275 276 0 0 1 17 258 0 256 247 269 244 143 268 0 0 -15 256 77 0 257
 277 0 17 269 0 256 258 278 130 120 279 0 280 +16 268 1735 281 ?143 282 283 284
 282 282 1 81 1 281 2039 285 268 0 0 286 287 288 16 282 226 287 ?289 290 268 284
 268 268 1 16 283 224 291 ?37 268 292 293 292 292 1 30 284 335 0 282 293 294 0 +
.0289 .0289 -.0055 107081696047951e-30 -1 0 30 293 336 0 283 295 284 0 +-.0035 .
0289 -.0055 1 -107081696047951e-29 0 30 294 334 0 296 284 297 0 +.0289 -.0035 -.
0055 -1 990505688443547e-30 0 16 296 228 298 ?267 299 290 294 290 290 1 30 297 3
25 0 300 294 301 0 +-5e-4 -5e-4 .005 0 1 0 16 300 230 302 ?303 304 305 297 0 0 1
 30 301 324 0 306 297 307 0 +-5e-4 .0259 .005 1 0 0 16 306 234 308 ?309 310 311
 301 0 0 1 30 307 323 0 311 301 312 0 +.0259 .0259 .005 0 -1 0 16 311 238 313 ?3
14 306 304 307 0 0 1 30 312 322 0 304 307 315 0 +.0259 -5e-4 .005 -1 0 0 16 304
 242 316 ?317 311 300 312 0 0 1 30 315 321 0 318 312 319 0 +.0259 -5e-4 -.0055 0
 0 1 16 318 192 320 ?133 321 322 315 0 0 1 30 319 320 0 322 315 323 0 +.0259 .02
59 -.0055 0 0 1 16 322 220 324 ?137 318 299 319 0 0 1 30 323 319 0 299 319 325 0
 +-5e-4 .0259 -.0055 0 0 1 16 299 184 326 ?140 322 296 323 0 0 1 30 325 318 0 32
1 323 327 0 +-5e-4 -5e-4 -.0055 0 0 1 16 321 188 328 ?117 329 318 325 0 0 1 30 3
27 9 0 329 325 330 0 +-.0035 -.0035 .008 -6558753882937e-28 1 0 16 329 6 331 ?33
2 333 321 327 0 0 1 30 330 14 0 333 327 334 0 +-.0035 .0289 .008 1 4283267841918
04e-30 0 16 333 11 335 ?336 337 329 330 0 0 1 30 334 19 0 337 330 338 0 +.0289 .
0289 .008 214163392095902e-30 -1 0 16 337 16 339 ?278 340 333 334 0 0 1 30 338 2
2 0 340 334 341 0 +.0289 -.0035 .008 -1 -120466908053945e-30 0 16 340 20 342 ?34
3 344 337 338 0 0 1 30 341 87 0 279 338 345 0 +.0289 -.0035 .008 0 0 -1 16 279 7
1 346 ?269 347 344 341 0 0 1 30 345 88 0 347 341 348 0 +.0289 .0289 .008 0 0 -1
 16 347 72 349 ?350 351 279 345 0 0 1 30 348 89 0 351 345 352 0 +-.0035 .0289 .0
08 0 0 -1 16 351 73 353 ?354 355 347 348 0 0 1 30 352 90 0 344 348 356 0 +-.0035
 -.0035 .008 0 0 -1 16 344 74 357 ?358 279 340 352 0 0 1 30 356 1387 0 359 352 3
60 0 +0 .018721660284801 -.0055 -1 0 0 16 359 1386 361 ?362 363 364 356 0 0 1 30
 360 1390 0 363 356 365 0 +0 .00667833971519911 -.0055 1 0 0 16 363 1388 366 ?36
7 368 359 360 0 0 1 30 365 2094 0 368 360 369 0 +.0037 -.0035 -.0035 0 0 1 16 36
8 2092 370 ?371 372 363 365 0 0 1 30 369 2101 0 372 365 373 0 -.0217 -.0035 -.00
55 0 0 1 16 372 2099 374 ?375 376 368 369 0 0 1 31 255 373 2122 0 376 369 377 0
 +.0157 -.0065 -.0035 0 0 1 1 0 0 .003 16 376 2120 378 ?81 379 372 373 0 0 1 31
 377 2127 0 379 373 380 0 +.0097 -.0065 -.0035 0 0 1 1 0 0 .003 16 379 2125 381
 ?87 382 376 377 0 0 1 30 380 2138 0 382 377 383 0 +.0157 -.0095 -.06869 0 0 1 1
6 382 2136 384 ?84 385 379 380 0 0 1 30 383 2143 0 385 380 386 0 -.0097 -.0095 -
.06869 0 0 1 16 385 2141 387 ?75 388 382 383 0 0 1 31 386 2154 0 388 383 389 0 +
.0157 -.0065 -.0055 0 0 -1 -1 0 0 .003 16 388 2152 390 ?78 391 385 386 0 0 1 31
 389 2163 0 391 386 392 0 +.0097 -.0065 -.0055 0 0 -1 -1 0 0 .003 16 391 2161 39
3 ?69 394 388 389 0 0 1 30 392 2184 0 394 389 395 0 +.0217 .0289 .008 0 0 1 16 3
94 2182 396 ?397 398 391 392 0 0 1 30 395 2191 0 398 392 399 0 -.0037 .0289 .008
 0 0 1 16 398 2189 400 ?401 402 394 395 0 0 1 30 399 2212 0 402 395 403 0 -.0157
 .0349 -.06869 0 0 1 16 402 2210 404 ?405 406 398 399 0 0 1 30 403 2217 0 406 39
9 407 0 +.0097 .0349 -.06869 0 0 1 16 406 2215 408 ?52 409 402 403 0 0 1 31 407
 2228 0 409 403 410 0 +.0157 .0319 -.0035 0 0 1 1 0 0 .003 16 409 2226 411 ?49 4
12 406 407 0 0 1 31 410 2233 0 412 407 413 0 +.0097 .0319 -.0035 0 0 1 1 0 0 .00
3 16 412 2231 414 ?46 32 409 410 0 0 1 31 413 2244 0 32 410 415 0 +.0157 .0319 -
.0055 0 0 -1 -1 0 0 .003 16 32 2242 416 ?27 417 412 413 0 0 1 31 415 2253 0 417
 413 418 0 +.0097 .0319 -.0055 0 0 -1 -1 0 0 .003 16 417 2251 419 ?36 420 32 415
 0 0 1 31 418 2492 0 420 415 421 0 -.0217 -.0065 -.0035 0 0 1 1 0 0 .003 16 420
 2260 422 ?423 424 417 418 0 0 1 31 421 2493 0 424 418 425 0 -.0217 -.0065 -.005
5 0 0 -1 -1 0 0 .003 16 424 2264 426 ?72 427 420 421 0 0 1 31 425 2494 0 427 421
 428 0 -.0037 -.0065 -.0035 0 0 1 1 0 0 .003 16 427 2272 429 ?90 430 424 425 0 0
 1 31 428 2495 0 430 425 431 0 -.0037 -.0065 -.0055 0 0 -1 -1 0 0 .003 16 430 22
76 432 ?99 433 427 428 0 0 1 31 431 2496 0 433 428 434 0 -.0037 .0319 -.0035 0 0
 1 1 0 0 .003 16 433 2284 435 ?436 39 430 431 0 0 1 31 434 2497 0 39 431 437 0 -
.0037 .0319 -.0055 0 0 -1 -1 0 0 .003 16 39 2288 438 ?34 25 433 434 0 0 1 31 437
 2498 0 25 434 26 0 -.0217 .0319 -.0035 0 0 1 1 0 0 .003 16 25 2296 439 ?41 9 39
 437 0 0 1 31 26 2499 0 9 437 440 0 -.0217 .0319 -.0055 0 0 -1 -1 0 0 .003 30 44
0 2557 0 441 26 442 0 -.0187 -.0065 -.06869 0 0 1 16 441 2547 443 ?444 445 446 4
40 0 0 1 30 442 2589 0 446 440 20 0 +.0067 -.0065 -.06869 0 0 1 16 446 2577 447
 ?448 441 449 442 0 0 1 30 20 2621 0 449 442 6 0 -.0067 .0319 -.06869 0 0 1 16 4
49 2611 450 ?451 446 19 20 0 0 1 81 1 450 2710 285 449 0 0 374 408 452 17 451 0
 453 38 454 28 455 449 0 0 +16 19 2643 456 ?457 449 0 6 0 0 1 81 1 456 2689 285
 19 0 0 381 384 458 17 457 0 459 31 460 10 461 19 0 0 +15 459 2635 0 31 462 0 17
 31 0 459 463 457 55 27 32 0 405 -17 460 0 459 457 463 35 49 409 0 0 -17 461 0 4
64 465 33 35 457 19 0 460 -15 464 2633 0 466 17 0 17 465 0 464 466 461 60 41 25
 0 0 -17 33 0 464 461 466 10 24 9 0 457 -17 466 0 464 33 465 65 397 394 0 0 -17
 24 0 29 146 27 65 33 9 0 467 +15 29 1028 0 37 468 0 17 146 0 29 289 24 144 467
 292 0 350 +17 467 0 469 397 350 65 146 292 0 466 -15 469 79 0 59 470 0 17 397 0
 469 59 467 60 466 394 0 465 +17 350 0 469 467 336 144 123 347 0 471 +16 292 217
1 472 ?146 283 473 293 283 283 1 81 1 472 2677 285 292 0 0 298 474 475 16 473 22
2 476 ?477 292 310 295 310 310 1 81 1 476 1677 285 473 0 0 478 479 480 17 477 0
 263 367 151 193 481 473 0 0 +16 310 1375 479 ?149 473 306 295 473 473 1 30 295
 337 0 473 482 293 0 +-.0035 -.00349999999999995 -.0055 -1606225440719265e-31 1
 0 31 482 487 0 355 483 295 0 +.01715 .00178 .005 0 0 -1 183697019872103e-30 -1
 0 .0013 16 355 454 484 ?485 486 351 482 0 0 1 31 483 488 0 305 487 482 0 +.0171
5 .00178 .00185 0 0 -1 183697019872103e-30 -1 0 .0013 16 305 469 488 ?489 300 49
0 483 0 0 1 31 487 523 0 486 491 483 0 +.00178 .00178 .005 0 0 -1 18369701987210
3e-30 -1 0 .0013 16 486 490 492 ?493 494 355 487 0 0 1 31 491 524 0 490 495 487
 0 +.00178 .00178 .00185 0 0 -1 183697019872103e-30 -1 0 .0013 16 490 505 496 ?4
97 305 498 491 0 0 1 31 495 559 0 494 499 491 0 +.00178 .02362 .005 0 0 -1 18369
7019872103e-30 -1 0 .0013 16 494 526 500 ?501 364 486 495 0 0 1 31 499 560 0 498
 502 495 0 +.00178 .02362 .00185 0 0 -1 183697019872103e-30 -1 0 .0013 16 498 54
1 503 ?504 490 505 499 0 0 1 31 502 595 0 364 506 499 0 +.02362 .02437 .005 0 0
 -1 183697019872103e-30 -1 0 .001 16 364 562 507 ?508 359 494 502 0 0 1 31 506 5
96 0 505 509 502 0 +.02362 .02437 .00185 0 0 -1 183697019872103e-30 -1 0 .001 16
 505 577 510 ?511 498 512 506 0 0 1 31 509 795 0 513 514 506 0 +.0127 -.0065 -.0
055 0 0 -1 -1 0 0 .0015 16 513 733 515 ?516 517 518 509 0 0 1 30 514 797 0 517 5
19 509 0 -.0067 -.0095 -.0055 1 0 0 16 517 2131 520 ?265 521 513 514 0 0 1 30 51
9 801 0 512 522 514 0 +.0067 -.0095 -.0035 1 0 0 16 512 2112 523 ?524 505 525 51
9 0 0 1 30 522 803 0 525 526 519 0 +.0187 -.0035 -.0035 -1 578241158658936e-30 0
 16 525 741 527 ?96 512 521 522 0 0 1 31 526 804 0 521 528 522 0 +.0127 -.0065 -
.0035 0 0 1 1 0 0 .0015 16 521 731 529 ?530 525 517 526 0 0 1 31 528 934 0 531 5
32 526 0 +.0127 .0319 -.0055 0 0 -1 -1 0 0 .0015 16 531 882 533 ?534 535 536 528
 0 0 1 30 532 937 0 535 537 528 0 -.0067 .0349 -.0055 1 0 0 16 535 2199 538 ?539
 540 531 532 0 0 1 30 537 940 0 518 541 532 0 +.0067 .0349 -.0035 1 0 0 16 518 2
205 542 ?543 513 544 537 0 0 1 30 541 942 0 544 545 537 0 +.0187 .0289 -.0035 -1
 0 0 16 544 876 474 ?59 518 540 541 0 0 1 31 545 943 0 540 546 541 0 +.0127 .031
9 -.0035 0 0 1 1 0 0 .0015 16 540 880 547 ?548 544 535 545 0 0 1 30 546 1269 0 5
49 550 545 0 --.00200000000000003 .0274 -.004 0 0 -1 16 549 1147 551 ?552 553 55
4 546 0 0 1 30 550 1270 0 536 555 546 0 --.00200000000000003 -.00199999999999995
5 -.004 0 0 -1 16 536 1153 556 ?557 531 558 550 0 0 1 30 555 1271 0 558 559 550
 0 -.0274 -.002 -.004 0 0 -1 16 558 1159 560 ?561 536 553 555 0 0 1 30 559 1272
 0 553 562 555 0 -.0274 .0274 -.004 0 0 -1 16 553 1165 563 ?564 558 549 559 0 0
 1 30 562 1281 0 565 566 559 0 +.0274 .0274 -.0055 -1 1180083997263134e-30 0 16
 565 1161 567 ?568 569 272 562 0 0 1 30 566 1282 0 272 570 562 0 +.0274 -.002 -.
0055 0 1 0 16 272 1155 571 ?264 565 572 566 572 572 1 30 570 1283 0 573 574 566
 0 +-.00200000000000003 -.001999999999999955 -.0055 1 -1165332947297344e-30 0 16
 573 1149 575 ?270 572 576 570 0 0 1 30 574 1284 0 576 577 570 0 +-.002000000000
00003 .0274 -.0055 0 -1 0 16 576 1143 578 ?579 573 580 574 580 580 1 30 577 1285
 0 554 581 574 0 -.0259 -.000499999999999994 -.004 -1 0 0 16 554 1195 582 ?583 5
49 584 577 0 0 1 30 581 1286 0 584 585 577 0 +.0259 .0259 -.004 0 -1 0 16 584 11
91 586 ?587 554 588 581 588 588 1 30 585 1287 0 589 590 581 0 +-.000500000000000
014 .0259 -.004 1 0 0 16 589 1187 591 ?592 588 593 585 0 0 1 30 590 1288 0 593 5
94 585 0 --.000500000000000014 -.000499999999999993 -.004 0 1 0 16 593 1183 595
 ?596 589 597 590 597 597 1 30 594 1289 0 598 599 590 0 -.0274 .0274 -.004 -1 11
80083997263134e-30 0 16 598 1181 600 ?601 597 602 594 0 0 1 30 599 1290 0 602 60
3 594 0 -.0274 -.002 -.004 0 1 0 16 602 1179 604 ?605 598 606 599 606 606 1 30 6
03 1291 0 607 608 599 0 --.00200000000000003 -.001999999999999955 -.004 1 -11653
32947297344e-30 0 16 607 1177 609 ?179 606 610 603 0 0 1 30 608 1292 0 610 611 6
03 0 --.00200000000000003 .0274 -.004 0 -1 0 16 610 1175 612 ?613 607 569 608 56
9 569 1 30 611 1615 0 614 615 608 0 +-5e-4 -.000499999999999994 .000500000000000
013 0 1 -963269488555879e-30 16 614 1529 616 ?617 580 618 611 0 0 1 30 615 1616
 0 618 619 611 0 +-5e-4 .00667833971519911 -.0055 0 867361737988404e-30 1 16 618
 1497 620 ?621 614 622 615 0 0 1 30 619 1617 0 622 623 615 0 +0 .006678339715199
11 -.004 -1 0 0 16 622 1483 624 ?186 618 625 619 0 0 1 30 623 1618 0 625 626 619
 0 +-.00200000000000003 .00667833971519911 -.004 0 867361737988404e-30 1 16 625
 1509 627 ?628 622 629 623 0 0 1 30 626 1619 0 629 630 623 0 +-5e-4 .01872166028
4801 -.0055 0 -867361737988404e-30 -1 16 629 1516 631 ?632 625 633 626 0 0 1 30
 630 1620 0 633 634 626 0 +0 .018721660284801 -.004 1 0 0 16 633 1494 635 ?198 6
29 636 630 0 0 1 30 634 1621 0 636 637 630 0 +-.00200000000000003 .0187216602848
01 -.004 0 -867361737988404e-30 -1 16 636 1519 638 ?639 633 640 634 0 0 1 30 637
 1622 0 641 642 634 0 --.000100000000000012 .00667833971519912 5e-4 -1 0 0 16 64
1 1488 643 ?644 640 645 637 0 0 1 30 642 1625 0 640 646 637 0 --.000100000000000
012 .018721660284801 5e-4 -1 0 0 16 640 1481 647 ?648 636 641 642 0 0 1 30 646 1
626 0 645 649 642 0 +-.0035 .018721660284801 .000499999999999994 0 -1 9632694885
55879e-30 16 645 1534 650 ?651 641 652 646 0 0 1 30 649 1627 0 652 653 646 0 +-.
0035 .018721660284801 -.0115 0 867361737988404e-30 1 16 652 1492 654 ?655 645 26
0 649 0 0 1 30 653 1629 0 260 656 649 0 +-.0035 .00667833971519912 5e-4 0 -86736
1737988404e-30 -1 16 260 1502 657 ?658 652 248 653 0 0 1 30 656 1979 0 445 659 6
53 0 +.0259 .0251773353454739 5e-4 0 0 -1 16 445 1872 660 ?222 661 441 656 0 0 1
 30 659 1980 0 661 662 656 0 +.0274 .0251773353454739 5e-4 0 0 -1 16 661 1884 66
3 ?225 664 445 659 0 0 1 30 662 1981 0 664 665 659 0 --.00674 .0251773353454739
 -.0055 1 0 0 16 664 1892 666 ?667 668 661 662 0 0 1 30 665 1982 0 668 669 662 0
 +.0259 .000222664654526149 5e-4 0 1 1824768269168525e-31 16 668 1868 670 ?671 6
72 664 665 0 0 1 30 669 1983 0 672 673 665 0 +.0259 .000222664654526147 -.0115 0
 0 1 16 672 1864 674 ?253 275 668 669 0 0 1 30 673 1984 0 275 276 669 0 +.0274 .
000222664654526147 -.0115 0 0 1 16 275 1880 675 ?231 251 672 673 0 0 1 30 276 19
85 0 251 676 673 0 --.00674 .000222664654526147 -.0055 -1 0 0 30 676 1986 0 677
 678 276 0 +-.00674 .0251773353454739 -.004 -1 0 0 16 677 1896 679 ?680 254 274
 676 0 0 1 30 678 1987 0 254 681 676 0 --.00674 .000222664654526147 5e-4 1 0 0 1
6 254 1918 682 ?237 683 677 678 0 0 1 30 681 1988 0 683 262 678 0 --.00674 .0251
773353454739 5e-4 1 0 0 16 683 1900 684 ?240 685 254 681 0 0 1 30 262 1989 0 248
 686 681 0 +.0289 .000222664654526147 -.0115 0 0 1 30 686 1990 0 261 687 262 0 +
.0289 .000222664654526149 5e-4 -278059926730442e-30 1 1824768269168525e-31 16 26
1 1920 688 ?257 248 685 686 0 0 1 30 687 1991 0 685 689 686 0 +.0289 .0251773353
454739 5e-4 0 0 -1 16 685 1902 690 ?691 261 683 687 0 0 1 30 689 1995 0 274 0 68
7 0 +-.00674 .000222664654526147 -.004 1 0 0 16 274 1914 692 ?693 677 251 689 0
 0 1 81 1 692 2047 285 274 0 0 684 682 694 17 693 0 695 176 696 229 228 274 0 69
7 +15 695 1814 0 696 15 0 17 176 0 695 179 693 174 697 606 0 698 +17 696 0 695 6
93 583 226 164 588 0 0 -17 228 0 246 253 231 226 693 274 0 699 -17 697 0 700 252
 561 229 176 606 0 0 -15 700 1809 0 252 701 0 17 252 0 700 271 697 232 231 275 0
 264 -17 561 0 700 697 271 174 158 558 0 0 +16 606 1800 702 ?176 602 607 599 602
 602 1 81 1 702 2053 285 606 0 0 674 703 704 80 255 1 285 705 706 9000 1 1 1 1 1
 1 1 1 0 FFFFTFTFFFFFFF3 81 1 674 2052 285 672 0 0 660 702 707 81 1 703 2054 285
 588 0 0 702 571 708 84 255 32 704 562b3df6f323ab6f882f62f85613ca5c16 588 1757 7
03 ?164 584 589 581 584 584 1 81 1 571 2055 285 272 0 0 703 604 709 84 32 708 b9
0af4888d787bfe0e097ba7b979a4c681 1 604 2056 285 602 0 0 571 586 710 84 32 709 ba
d4418330eefaf058936341d7c43bdf81 1 586 2057 285 584 0 0 604 675 711 84 32 710 dc
04752308bd34740a73c0906cef63df81 1 675 2058 285 275 0 0 586 663 712 84 32 711 dc
67beb8a17d8e0d83423ad19a9b0c5c81 1 663 2059 285 661 0 0 675 713 714 84 32 712 65
30cbeddb197aa3084d3357e61ce16081 1 713 2060 285 572 0 0 663 715 716 84 32 714 cc
a8dcaf885abb49de1b7a3aef7cce3816 572 1778 713 ?154 272 573 566 272 272 1 81 1 71
5 2061 285 277 0 717 713 718 719 84 32 716 44c82da60c62cf9b281f173c3e49252d14 25
5 277 78 720 ?721 468 256 4 722 +0 0 721 468 22 81 1 717 2738 723 277 715 720 72
4 725 726 81 1 718 2063 285 15 0 727 715 728 729 84 32 719 3d5c91fe280324e3a3e04
978c7a6b59214 15 1815 730 ?701 0 695 4 731 -732 732 701 0 22 81 1 727 2730 723 1
5 718 730 0 733 734 81 1 728 2064 285 735 0 736 718 737 738 84 32 729 5b5bf09e93
e0545a02f9b42c2de3d6c014 735 1964 739 ?740 250 741 4 742 +0 0 250 743 22 81 1 73
6 2808 723 735 728 739 744 745 746 81 1 737 2065 285 250 0 744 728 747 748 84 32
 738 72839b33cde125250c6d10ccf297890214 250 1960 749 ?735 750 246 4 751 +0 0 750
 735 22 81 1 744 2806 723 250 737 749 752 736 753 81 1 747 2066 285 750 0 752 73
7 754 755 84 32 748 985b7148df1fa5637c1754ae64df089b14 750 1956 756 ?250 743 757
 4 758 +0 0 740 250 22 81 1 752 2804 723 750 747 756 759 744 760 81 1 754 2067 2
85 732 0 761 747 762 763 84 32 755 f6b0fb9aca07365492616d611472471714 732 1247 7
64 ?765 766 767 4 731 -15 15 765 766 22 81 1 761 2746 723 732 754 764 768 769 77
0 81 1 762 2069 285 771 0 772 754 773 774 84 32 763 f91511e7a3f2fdcce81060a559a4
b1f114 771 270 775 ?776 777 778 4 779 +0 0 776 777 22 81 1 772 2752 723 771 762
 775 780 781 782 81 1 773 2070 285 701 0 733 762 783 784 84 32 774 8baba1829405a
3945d6c25d77bc3d9ff14 701 1805 785 ?266 15 700 4 786 +787 787 266 15 22 81 1 733
 2732 723 701 773 785 727 788 789 81 1 783 2071 285 787 0 790 773 791 792 84 32
 784 1e0fe261d61f46abafea787a346d989a14 787 1235 793 ?794 795 796 4 786 +701 701
 794 795 22 81 1 790 2776 723 787 783 793 797 798 799 81 1 791 2674 285 290 0 0
 783 291 800 84 32 792 d95ac87ba0dc27473d54294bbad44eb516 290 2085 791 ?151 296
 282 294 296 296 1 81 1 291 2675 285 283 0 0 791 298 801 84 32 800 805d6775a480a
8f3af7f8c023b5e446c81 1 298 2676 285 296 0 0 291 472 802 84 32 801 1b6cbece09862
e6aa9692a42a7a0550684 32 802 f43df5cee453d80b3d04e90ef4e30c8a17 151 0 263 477 99
 134 803 290 0 358 +17 99 0 263 151 69 97 804 430 0 803 +17 803 0 805 371 358 97
 151 290 0 806 -17 358 0 805 803 343 134 129 344 0 481 +15 805 693 0 93 807 0 17
 343 0 805 358 120 127 808 340 0 809 +17 129 0 810 332 481 127 358 344 0 343 -17
 481 0 810 129 658 134 477 473 0 0 -15 810 81 0 651 765 0 17 658 0 810 481 651 1
93 811 260 0 477 +17 651 0 810 658 655 211 812 645 0 0 +17 811 0 813 644 195 211
 658 260 0 651 -15 813 1586 0 186 814 0 17 644 0 813 183 811 190 213 641 0 621 +
17 195 0 813 811 189 193 367 363 0 658 -17 189 0 813 195 186 187 628 625 0 367 -
17 367 0 263 161 477 187 195 363 0 815 +17 161 0 263 270 367 159 815 580 0 816 +
17 815 0 817 628 818 187 161 580 0 0 -15 817 1433 0 815 819 0 17 628 0 817 820 8
15 184 189 625 0 613 +17 818 0 817 815 820 159 557 536 0 0 -16 580 1383 821 ?161
 576 614 574 576 576 1 81 1 821 1693 285 580 0 0 620 612 822 81 1 620 1692 285 6
18 0 0 631 821 823 81 1 612 1694 285 610 0 0 821 578 824 84 32 822 ff74885b46f6a
529240b66759a2e3f0681 1 578 1695 285 576 0 0 612 627 825 84 32 824 769921280e117
4e0a33c535b45563a3d81 1 627 1696 285 625 0 0 578 826 827 84 32 825 22b48d89c79c1
95d44504d9444ca5a7681 1 826 1697 285 569 0 0 627 638 828 84 32 827 e357464f544c3
40da66b330413c8269216 569 1415 826 ?181 610 565 608 610 610 1 81 1 638 1698 285
 636 0 0 826 829 830 84 32 828 489f7755a34f412b977dddd0eae6515a81 1 829 1699 285
 765 0 769 638 831 832 84 32 830 9f66937ea40552ddebba74ee35f687a414 765 82 833 ?
777 732 810 4 834 +0 0 777 732 22 81 1 769 2748 723 765 829 833 761 780 835 81 1
 831 1702 285 743 0 759 829 836 837 84 32 832 66aab619e818547bdd81b4350154dfb214
 743 1595 838 ?750 839 840 4 841 +0 0 735 839 22 81 1 759 2802 723 743 831 838 8
42 752 843 81 1 836 1703 285 814 0 844 831 845 846 84 32 837 13a3e86033efa423181
3ea78a0e0dd1114 814 1583 847 ?839 848 813 4 849 +0 0 839 848 22 81 1 844 2798 72
3 814 836 847 850 842 851 81 1 845 1704 285 839 0 842 836 852 853 84 32 846 c581
b1e4b21ac9fa38bcdc1c4f25903614 839 1591 854 ?743 814 855 4 856 +0 0 743 814 22 8
1 1 842 2800 723 839 845 854 844 759 857 81 1 852 1705 285 721 0 725 845 858 859
 84 32 853 88508cd23e91f73bb0bab9e08f0f70fb14 721 262 860 ?819 277 861 4 862 +0
 0 819 277 22 81 1 725 2740 723 721 852 860 717 863 864 81 1 858 1706 285 819 0
 863 852 286 865 84 32 859 c2d4b1df7e416aa0b728bf291c3a0ef814 819 1439 866 ?766
 721 817 4 867 +766 766 766 721 22 81 1 863 2742 723 819 858 866 725 768 868 81
 1 286 1707 285 766 0 768 858 281 869 84 32 865 529f416c1d0fa41bb771ffe34c9eb884
14 766 1227 870 ?732 819 871 4 867 +819 819 732 819 22 81 1 768 2744 723 766 286
 870 863 761 872 84 32 869 cc761fa8f89d91ebde4850452d127cb080 1 723 873 874 8015
 0 0 0 0 3 5 0 0 0 FFFFTFFFFFFFFF2 81 1 870 2745 875 766 768 0 866 764 876 83 25
5 1 872 0 80 1 875 0 877 8001 0 0 0 0 3 5 0 0 0 FFFFTFTFFFFFFF2 81 1 866 2743 87
5 819 863 0 860 870 878 81 1 764 2747 875 732 761 0 870 833 879 83 3 876 .8 .2 .
2 81 1 833 2749 875 765 769 0 764 880 881 83 3 879 .8 .2 .2 81 1 880 2751 875 77
7 780 0 833 775 882 83 3 881 .8 .2 .2 14 777 266 880 ?771 765 883 4 884 +0 0 771
 765 22 81 1 780 2750 723 777 885 880 769 772 886 81 1 775 2753 875 771 772 0 88
0 887 888 83 3 882 .8 .2 .2 81 1 887 2755 875 776 781 0 775 889 890 83 3 888 .8
 .2 .2 14 776 290 887 ?891 771 892 4 893 +0 0 891 771 22 81 1 781 2754 723 776 8
94 887 772 895 896 81 1 889 2757 875 891 895 0 887 897 898 83 3 890 .8 .2 .2 14
 891 42 889 ?899 776 900 4 901 +0 0 899 776 22 81 1 895 2756 723 891 902 889 781
 903 904 81 1 897 2759 875 899 903 0 889 905 906 83 3 898 .8 .2 .2 14 899 471 89
7 ?907 891 908 4 909 -0 0 907 891 22 81 1 903 2758 723 899 910 897 895 911 912 8
1 1 905 2761 875 907 911 0 897 913 914 83 3 906 .8 .2 .2 14 907 476 905 ?915 899
 916 4 917 +0 0 915 899 22 81 1 911 2760 723 907 918 905 903 919 920 81 1 913 27
63 875 915 919 0 905 921 922 83 3 914 .8 .2 .2 14 915 507 913 ?923 907 924 4 925
 -0 0 923 907 22 81 1 919 2762 723 915 926 913 911 927 928 81 1 921 2765 875 923
 927 0 913 929 930 83 3 922 .8 .2 .2 14 923 512 921 ?931 915 932 4 933 +0 0 931
 915 22 81 1 927 2764 723 923 934 921 919 935 936 81 1 929 2767 875 931 935 0 92
1 937 938 83 3 930 .8 .2 .2 14 931 543 929 ?939 923 940 4 941 -0 0 939 923 22 81
 1 935 2766 723 931 942 929 927 943 944 81 1 937 2769 875 939 943 0 929 945 946
 83 3 938 .8 .2 .2 14 939 548 937 ?947 931 948 4 949 +0 0 947 931 22 81 1 943 27
68 723 939 950 937 935 951 952 81 1 945 2771 875 947 951 0 937 953 954 83 3 946
 .8 .2 .2 14 947 579 945 ?955 939 956 4 957 -0 0 955 939 22 81 1 951 2770 723 94
7 958 945 943 959 960 81 1 953 2773 875 955 959 0 945 961 962 83 3 954 .8 .2 .2
 14 955 584 953 ?795 947 963 4 964 +0 0 795 947 22 81 1 959 2772 723 955 965 953
 951 797 966 81 1 961 2775 875 795 797 0 953 793 967 83 3 962 .8 .2 .2 14 795 12
31 961 ?787 955 968 4 969 +0 0 787 955 22 81 1 797 2774 723 795 970 961 959 790
 971 81 1 793 2777 875 787 790 0 961 972 973 83 3 967 .8 .2 .2 81 1 972 2779 875
 794 798 0 793 974 975 83 3 973 .8 .2 .2 14 794 1239 972 ?976 787 977 4 978 +0 0
 976 787 22 81 1 798 2778 723 794 478 972 790 979 980 81 1 974 2781 875 976 979
 0 972 981 982 83 3 975 .8 .2 .2 14 976 24 974 ?983 794 984 4 985 -0 0 983 794 2
2 81 1 979 2780 723 976 986 974 798 987 988 81 1 981 2783 875 983 987 0 974 989
 990 83 3 982 .8 .2 .2 14 983 777 981 ?991 976 992 4 993 +0 0 991 976 22 81 1 98
7 2782 723 983 994 981 979 995 996 81 1 989 2785 875 991 995 0 981 997 998 83 3
 990 .8 .2 .2 14 991 916 989 ?999 983 1000 4 1001 +0 0 999 983 22 81 1 995 2784
 723 991 1002 989 987 1003 1004 81 1 997 2787 875 999 1003 0 989 1005 1006 83 3
 998 .8 .2 .2 14 999 762 997 ?807 991 1007 4 1008 +0 0 807 991 22 81 1 1003 2786
 723 999 1009 997 995 1010 1011 81 1 1005 2789 875 807 1010 0 997 1012 1013 83 3
 1006 .8 .2 .2 14 807 76 1005 ?1014 999 805 4 1015 +0 0 1014 999 22 81 1 1010 27
88 723 807 1016 1005 1003 1017 1018 81 1 1012 2791 875 1014 1017 0 1005 1019 102
0 83 3 1013 .8 .2 .2 14 1014 901 1012 ?470 807 1021 4 1022 -0 0 470 807 22 81 1
 1017 2790 723 1014 1023 1012 1010 1024 1025 81 1 1019 2793 875 470 1024 0 1012
 1026 1027 83 3 1020 .8 .2 .2 14 470 80 1019 ?1028 1014 469 4 1029 +0 0 1028 101
4 22 81 1 1024 2792 723 470 1030 1019 1017 1031 1032 81 1 1026 2795 875 1028 103
1 0 1019 1033 1034 83 3 1027 .8 .2 .2 14 1028 772 1026 ?848 470 1035 4 1036 -0 0
 848 470 22 81 1 1031 2794 723 1028 1037 1026 1024 850 1038 81 1 1033 2797 875 8
48 850 0 1026 847 1039 83 3 1034 .8 .2 .2 14 848 911 1033 ?814 1028 1040 4 1041
 -0 0 814 1028 22 81 1 850 2796 723 848 1042 1033 1031 844 1043 81 1 847 2799 87
5 814 844 0 1033 854 1044 83 3 1039 .8 .2 .2 81 1 854 2801 875 839 842 0 847 838
 1045 83 3 1044 .8 .2 .2 81 1 838 2803 875 743 759 0 854 756 1046 83 3 1045 .8 .
2 .2 81 1 756 2805 875 750 752 0 838 749 1047 83 3 1046 .8 .2 .2 81 1 749 2807 8
75 250 744 0 756 739 1048 83 3 1047 .8 .2 .2 81 1 739 2809 875 735 736 0 749 104
9 1050 83 3 1048 .8 .2 .2 81 1 1049 2811 875 740 745 0 739 1051 1052 83 3 1050 .
8 .2 .2 14 740 2536 1049 ?1053 735 1054 4 1055 +0 0 1053 750 22 81 1 745 2810 72
3 740 1056 1049 736 1057 1058 81 1 1051 2813 875 1053 1057 0 1049 1059 1060 83 3
 1052 .8 .2 .2 14 1053 2538 1051 ?1061 740 1062 4 1063 -0 0 1061 740 22 81 1 105
7 2812 723 1053 1064 1051 745 1065 1066 81 1 1059 2815 875 1061 1065 0 1051 1067
 1068 83 3 1060 .8 .2 .2 14 1061 2568 1059 ?1069 1053 1070 4 1071 +0 0 1069 1053
 22 81 1 1065 2814 723 1061 1072 1059 1057 1073 1074 81 1 1067 2817 875 1069 107
3 0 1059 1075 1076 83 3 1068 .8 .2 .2 14 1069 2570 1067 ?1077 1061 1078 4 1079 -
0 0 1077 1061 22 81 1 1073 2816 723 1069 1080 1067 1065 1081 1082 81 1 1075 2819
 875 1077 1081 0 1067 1083 1084 83 3 1076 .8 .2 .2 14 1077 2600 1075 ?1085 1069
 1086 4 1087 +0 0 1085 1069 22 81 1 1081 2818 723 1077 1088 1075 1073 1089 1090
 81 1 1083 2821 875 1085 1089 0 1075 1091 1092 83 3 1084 .8 .2 .2 14 1085 2602 1
083 ?17 1077 453 4 1093 -0 0 17 1077 22 81 1 1089 2820 723 1085 1094 1083 1081 1
095 1096 81 1 1091 2823 875 17 1095 0 1083 1097 1098 83 3 1092 .8 .2 .2 14 17 26
32 1091 ?462 1085 464 4 5 -0 0 462 1085 22 81 1 1095 2822 723 17 1099 1091 1089
 1100 1101 81 1 1097 2825 875 462 1100 0 1091 0 1102 83 3 1098 .8 .2 .2 14 462 2
634 1097 ?0 17 459 4 18 +0 0 0 17 22 81 1 1100 2824 723 462 1103 1097 1095 0 110
4 83 3 1102 .8 .2 .2 81 1 1103 2722 285 462 0 1100 1099 1072 1105 83 1 1104 0 81
 1 1099 2721 285 17 0 1095 1094 1103 1106 81 1 1072 2723 285 1061 0 1065 1103 10
56 1107 84 32 1105 2d2df4497e5a19c176906df547cf9dc581 1 1056 2724 285 740 0 745
 1072 1064 1108 84 32 1107 16571eb742e01777f4b4e4eea694d68c81 1 1064 2725 285 10
53 0 1057 1056 1080 1109 84 32 1108 5c70c153ed5c6aef408142bc6377ee6b81 1 1080 27
26 285 1069 0 1073 1064 1088 1110 84 32 1109 b14d28c835450ef7c76e530c3e38ab6f81
 1 1088 2727 285 1077 0 1081 1080 0 1111 84 32 1110 63d073965a01f629912fd77f0784
d5cb84 32 1111 8c726f97f8913a875384bbc41c8b007981 1 1094 2720 285 1085 0 1089 10
23 1099 1112 84 32 1106 7d7ad084d607a184492340f36753087781 1 1023 2719 285 1014
 0 1017 1002 1094 1113 84 32 1112 3fde831ee37b4e6c10d9cb25fae7ebae81 1 1002 2718
 285 991 0 995 1009 1023 1114 84 32 1113 46a8db77c2b03a049fb9c039d7e85cbb81 1 10
09 2717 285 999 0 1003 994 1002 1115 84 32 1114 e37534cc15ee15eaf8803171ef1ba2e9
81 1 994 2716 285 983 0 987 1116 1009 1117 84 32 1115 2bfdc872b2f122f08eb3893889
68228481 1 1116 2715 285 468 0 724 1118 994 1119 84 32 1117 4d436ba9a236e7769015
63029b45892114 468 294 1120 ?277 266 1121 4 1122 +266 266 277 266 22 81 1 724 27
36 723 468 1116 1120 788 717 1123 81 1 1118 2714 285 266 0 788 1016 1116 1124 84
 32 1119 8b919da4041ff592491cd8f03f3414f614 266 1790 1125 ?468 701 1126 4 1122 +
468 468 468 701 22 81 1 788 2734 723 266 1118 1125 733 724 1127 81 1 1016 2713 2
85 807 0 1010 1030 1118 1128 84 32 1124 c5af7fd754efb5c1d92ef7ef2feee62a81 1 103
0 2712 285 470 0 1024 408 1016 1129 84 32 1128 6ac8a159f2343a7ed1557bdcf6bb49b88
1 1 408 2711 285 406 0 0 450 1030 1130 84 32 1129 4774361cf41196f28ab3fbbe182bb5
7784 32 1130 6051bade64700b2c7ac18aa21dbafd8d81 1 1125 2735 875 266 788 0 785 11
20 1131 83 1 1127 0 81 1 785 2733 875 701 733 0 730 1125 1132 81 1 1120 2737 875
 468 724 0 1125 720 1133 83 3 1131 .8 .2 .2 81 1 720 2739 875 277 717 0 1120 860
 1134 83 3 1133 .8 .2 .2 81 1 860 2741 875 721 725 0 720 866 1135 83 3 1134 .8 .
2 .2 83 3 1135 .8 .2 .2 81 1 730 2731 875 15 727 0 0 785 1136 83 3 1132 .8 .2 .2
 83 3 1136 .8 .2 .2 15 1126 756 0 1137 266 263 50 255 1122 313 0 266 909 893 0 +
0 0 -.0055 0 0 -1 -1 0 0 13 22 91 0 0 0 0 0 0 8 15 51 909 484 0 899 917 1122 0 -
.01715 .00178 .00185 0 0 1 .0013 1 0 0 50 893 311 0 776 1122 779 0 +-5e-4 .0259
 -.0055 0 -1 0 0 0 -1 50 779 310 0 771 893 884 0 +.0259 .0259 -.0055 -1 0 0 0 0
 1 50 884 309 0 777 779 862 0 +.0259 -5e-4 -.0055 0 1 0 0 0 1 50 862 308 0 721 8
84 985 0 +-5e-4 -5e-4 -.0055 1 0 0 0 0 -1 50 985 25 0 976 862 901 0 +0 0 .008 0
 0 -1 -1 0 0 50 901 62 0 891 985 1015 0 +0 0 .005 0 0 -1 -1 0 0 50 1015 83 0 807
 901 722 0 +.0289 -.0035 .008 120466908053945e-30 -1 0 1 120466908053945e-30 0 5
0 722 84 0 277 1015 1029 0 +.0289 .0289 .008 1 214163392095902e-30 0 -2141633920
95902e-30 1 0 50 1029 85 0 470 722 834 0 +-.0035 .0289 .008 -428326784191804e-30
 1 0 -1 -428326784191804e-30 0 50 834 86 0 765 1029 1063 0 +-.0035 -.0035 .008 -
1 -6558753882937e-28 0 6558753882937e-28 -1 0 51 1063 2556 0 1053 834 1055 0 +.0
217 -.0065 -.06869 0 0 -1 .003 -1 0 0 51 1055 2555 0 740 1063 1079 0 +.0157 -.00
65 -.06869 0 0 1 .003 1 0 0 51 1079 2588 0 1069 1055 1071 0 +.0037 -.0065 .008 0
 0 -1 .003 -1 0 0 51 1071 2587 0 1061 1079 1093 0 +.0097 -.0065 -.06869 0 0 1 .0
03 1 0 0 51 1093 2620 0 1085 1071 1087 0 +.0037 .0319 -.06869 0 0 1 .003 1 0 0 5
1 1087 2619 0 1077 1093 18 0 +.0097 .0319 -.06869 0 0 1 .003 1 0 0 51 18 2652 0
 462 1087 5 0 +.0157 .0319 -.06869 0 0 1 .003 1 0 0 50 917 486 0 907 925 909 0 +
.01715 .00178 .00185 0 0 -1 -1 0 0 51 925 520 0 915 933 917 0 -.00178 .00178 .00
185 0 0 1 .0013 1 0 0 50 933 522 0 923 941 925 0 +.00178 .00178 .00185 0 0 -1 -1
 0 0 51 941 556 0 931 949 933 0 -.00178 .02362 .00185 0 0 1 .0013 1 0 0 50 949 5
58 0 939 957 941 0 +.00178 .02362 .00185 0 0 -1 -1 0 0 51 957 592 0 947 964 949
 0 -.02362 .02437 .00185 0 0 1 .001 1 0 0 50 964 594 0 955 1036 957 0 +.02362 .0
2437 .00185 0 0 -1 -1 0 0 51 1036 786 0 1028 1008 964 0 +.0127 -.0065 -.06869 0
 0 1 .0015 1 0 0 50 1008 788 0 999 993 1036 0 +.0067 -.0095 -.06869 0 -1 0 0 0 -
1 50 993 790 0 983 1041 1008 0 +.0127 -.0065 -.0035 0 0 1 1 0 0 51 1041 926 0 84
8 1022 993 0 +.0127 .0319 -.06869 0 0 1 .0015 1 0 0 50 1022 927 0 1014 1001 1041
 0 +.0067 .0349 -.06869 0 -1 0 0 0 -1 50 1001 929 0 991 867 1022 0 +.0127 .0319
 -.0035 0 0 1 1 0 0 50 867 1259 0 819 969 1001 0 +-.00200000000000003 .0274 -.00
4 1 0 0 0 0 -1 50 969 1260 0 795 786 867 0 +-.00200000000000003 -.00199999999999
9955 -.004 1165332947297344e-30 1 0 -1 1165332947297344e-30 0 50 786 1261 0 787
 978 969 0 +.0274 -.002 -.004 -1 0 0 0 0 1 50 978 1262 0 794 731 786 0 +.0274 .0
274 -.004 -1180083997263134e-30 -1 0 1 -1180083997263134e-30 0 50 731 1268 0 732
 849 978 0 +0 0 -.004 0 0 1 1 0 0 50 849 1609 0 814 856 731 0 +-.000100000000000
012 .00667833971519912 5e-4 0 1 -867361737988404e-30 0 867361737988404e-30 1 50
 856 1611 0 839 841 849 0 +-.000100000000000012 .018721660284801 -.0115 0 -1 867
361737988404e-30 0 -867361737988404e-30 -1 50 841 1612 0 743 742 856 0 +-.000100
000000000012 .018721660284801 .000499999999999994 0 -963269488555879e-30 -1 0 1
 -963269488555879e-30 50 742 1970 0 735 751 841 0 +-.00674 .000222664654526149 5
e-4 0 1824768269168525e-31 -1 0 1 1824768269168525e-31 50 751 1971 0 250 758 742
 0 +-.00674 .000222664654526147 -.0115 0 1 0 0 0 1 50 758 1972 0 750 0 751 0 +-.
00674 .0251773353454739 5e-4 0 -1 0 0 0 -1 17 1137 0 1126 1137 1137 0 516 513 0
 0 -17 516 0 1138 516 516 0 1137 513 0 0 +15 1138 776 0 516 1028 0 83 1 1123 0 1
5 1121 896 0 1139 468 29 17 1139 0 1121 1139 1139 0 534 531 0 0 -17 534 0 1140 5
34 534 0 1139 531 0 0 +15 1140 915 0 534 848 0 83 1 1101 0 83 1 1096 0 15 453 26
03 0 38 1085 0 17 38 0 453 1141 451 63 34 39 0 401 -17 1141 0 453 454 38 57 401
 398 0 0 -17 401 0 469 1142 59 63 1141 398 0 37 +17 1142 0 469 126 401 147 37 28
3 0 0 -17 59 0 469 401 397 57 62 544 0 436 +17 37 0 29 34 149 63 1142 283 0 0 +1
7 149 0 29 37 362 147 1143 310 0 354 +17 362 0 29 149 579 106 204 359 0 1143 +17
 1143 0 810 655 354 106 149 310 0 0 -17 354 0 810 1143 332 147 126 351 0 1142 +1
7 332 0 810 354 129 124 809 329 0 0 +17 126 0 469 336 1142 124 354 351 0 1144 -1
7 336 0 469 350 126 121 1144 333 0 1145 +17 1144 0 984 809 1145 124 336 333 0 33
2 -15 984 23 0 809 976 0 17 809 0 984 808 1144 127 332 329 0 0 -17 1145 0 984 11
44 808 121 278 337 0 0 -17 808 0 984 1145 809 118 343 340 0 0 -17 278 0 256 269
 123 118 1145 337 0 808 +17 123 0 256 278 471 121 350 347 0 336 -17 471 0 256 12
3 691 144 289 282 0 0 -17 691 0 256 471 257 241 105 685 0 289 +17 289 0 29 667 1
46 241 471 282 0 0 +17 667 0 29 154 289 223 243 664 0 1146 +17 154 0 29 568 667
 152 1146 572 0 1147 +17 243 0 757 105 225 241 667 664 0 691 -17 1146 0 796 1148
 1147 223 154 572 0 0 -15 796 1804 0 1148 787 0 17 1148 0 796 173 1146 217 225 6
61 0 605 -17 1147 0 796 1146 173 152 564 553 0 1149 -17 173 0 796 1147 1148 171
 605 602 0 564 -17 564 0 977 1150 1149 171 1147 553 0 601 +17 1149 0 977 564 115
1 152 568 565 0 0 -15 977 1242 0 1149 794 0 17 1151 0 977 1149 1150 112 552 549
 0 568 -17 568 0 29 579 154 112 1149 565 0 0 +17 579 0 29 362 568 202 114 576 0
 0 +17 114 0 871 552 639 112 579 576 0 1151 -15 871 1230 0 1152 766 0 17 552 0 8
71 1152 114 155 1151 549 0 0 +17 639 0 871 114 1152 202 201 636 0 579 +17 1152 0
 871 639 552 199 181 569 0 0 -17 201 0 855 198 204 199 639 636 0 1153 -15 855 15
94 0 210 839 0 17 198 0 855 207 201 196 1153 633 0 632 +17 204 0 855 201 108 202
 362 359 0 639 -17 1153 0 767 181 596 199 198 633 0 1152 -15 767 1428 0 605 732
 0 17 181 0 767 601 1153 155 1152 569 0 1150 +17 596 0 767 1153 167 196 1154 593
 0 0 +17 167 0 767 596 111 165 592 589 0 1154 -17 1154 0 861 140 632 165 596 593
 0 1155 -15 861 1443 0 1156 721 0 17 140 0 861 1157 1154 138 1155 299 0 1158 +17
 632 0 861 1154 617 196 207 629 0 596 +17 1155 0 892 592 1158 165 140 299 0 0 -1
5 892 293 0 1155 776 0 17 592 0 892 137 1155 109 167 589 0 1159 +17 1158 0 892 1
155 137 138 309 306 0 303 -17 137 0 892 1158 592 135 1159 322 0 1160 +17 309 0 1
161 314 303 135 1158 306 0 0 +17 303 0 1161 309 317 138 1157 300 0 0 +15 1161 14
7 0 317 891 0 17 317 0 1161 303 314 115 1162 304 0 0 +17 1157 0 861 1163 140 115
 303 300 0 317 -17 1163 0 861 1156 1157 168 117 321 0 0 -17 1156 0 861 621 1163
 162 170 597 0 0 -17 117 0 883 1162 1164 115 1163 321 0 1157 +15 883 269 0 1165
 777 0 17 1162 0 883 1165 117 131 317 304 0 314 -17 1164 0 883 117 1165 168 583
 554 0 1163 -17 1165 0 883 1164 1162 141 133 318 0 0 -17 583 0 695 696 170 141 1
164 554 0 1165 +17 170 0 695 583 1166 168 1156 597 0 1164 +17 1166 0 695 170 613
 162 186 622 0 1156 -16 597 1423 1167 ?170 593 598 590 593 593 1 81 1 1167 1688
 285 597 0 0 624 616 1168 81 1 624 1687 285 622 0 0 654 1167 1169 81 1 616 1689
 285 614 0 0 1167 595 1170 84 32 1168 3371d06bd4ac546e6294c98ef1c53b4781 1 595 1
690 285 593 0 0 616 631 1171 84 32 1170 48604e2850eb85bc0ad9d667cbeaef7981 1 631
 1691 285 629 0 0 595 620 1172 84 32 1171 4166821f6f88f15c7f8ff34f5cc80a8084 32
 1172 5e3804293263fbeb4bb4ae01ebdba7d681 1 654 1686 285 652 0 0 650 624 1173 84
 32 1169 fdd80394bda5e907017a26381026e19e81 1 650 1685 285 645 0 0 657 654 1174
 84 32 1173 c4cc2900b36ffb19b042cd9d3c4f169f81 1 657 1684 285 260 0 0 643 650 11
75 84 32 1174 46f3c80e2ab1e02c329b3bc8eea4a01681 1 643 1683 285 641 0 0 361 657
 1176 84 32 1175 c86426e4cfcffcb1a267d32fdc3c523581 1 361 1682 285 359 0 0 366 6
43 1177 84 32 1176 7d4e706468bba91982ed642bd1aaad2081 1 366 1681 285 363 0 0 647
 361 1178 84 32 1177 d37281f8838bcd4844aaa326a2da636781 1 647 1680 285 640 0 0 6
35 366 1179 84 32 1178 ae8902813b7f1c05bfcdd0fdb8bac0dd81 1 635 1679 285 633 0 0
 479 647 1180 84 32 1179 7dc9129ed287a2533c48bcacd9c8490c81 1 479 1678 285 310 0
 0 476 635 1181 84 32 1180 5f90ed9ad1c89144e87aebb4b425673f84 32 1181 6338fb81f7
62dd301ffc383f9dee2f2f17 613 0 695 1166 179 184 820 610 0 0 +17 186 0 813 189 18
3 184 1166 622 0 628 +17 183 0 813 186 644 162 621 618 0 1166 -17 621 0 861 617
 1156 190 183 618 0 0 +17 617 0 861 632 621 205 192 614 0 0 +17 192 0 840 213 64
8 190 617 614 0 644 -15 840 1598 0 213 743 0 17 213 0 840 812 192 211 644 641 0
 811 -17 648 0 840 192 812 205 210 640 0 617 +17 812 0 840 648 213 208 651 645 0
 655 -17 210 0 855 108 207 208 648 640 0 812 -17 108 0 855 204 210 106 655 652 0
 362 -17 207 0 855 210 198 205 632 629 0 648 -17 655 0 810 651 1143 208 108 652
 0 0 +17 179 0 695 613 176 177 698 607 0 820 +17 820 0 817 818 628 177 613 610 0
 557 -17 557 0 968 698 816 177 818 536 0 0 +15 968 1234 0 816 795 0 17 698 0 968
 158 557 174 179 607 0 561 -17 816 0 968 557 158 159 270 573 0 818 -17 158 0 968
 816 698 156 561 558 0 271 -17 270 0 263 264 161 156 816 573 0 0 +17 271 0 700 5
61 252 156 264 272 0 270 -17 133 0 778 1160 164 131 1165 318 0 1162 +15 778 1769
 0 699 771 0 17 1160 0 778 1159 133 135 314 311 0 309 -17 164 0 778 133 699 141
 696 588 0 583 +17 699 0 778 164 1182 226 253 672 0 696 -17 1182 0 778 699 1183
 235 671 668 0 0 -17 253 0 246 216 228 235 699 672 0 1182 +17 1183 0 778 1182 58
7 238 222 445 0 0 -17 671 0 741 1184 237 238 1182 668 0 1183 +15 741 1967 0 671
 735 0 17 1184 0 741 255 671 103 240 683 0 257 -17 237 0 741 671 255 235 216 254
 0 253 +17 255 0 741 237 1184 214 257 261 0 247 -17 257 0 256 691 247 103 255 26
1 0 0 +17 240 0 757 222 105 238 1184 683 0 671 +15 757 1959 0 243 750 0 17 222 0
 757 219 240 220 1183 445 0 680 +17 105 0 757 240 243 103 691 685 0 1184 -17 219
 0 757 225 222 217 680 677 0 1148 -17 680 0 767 111 605 220 219 677 0 587 +17 11
1 0 767 167 680 109 587 584 0 592 -17 605 0 767 680 601 217 173 602 0 0 +17 587
 0 778 1183 1159 220 111 584 0 0 +17 1159 0 778 587 1160 109 137 322 0 0 -17 601
 0 767 605 181 171 1150 598 0 0 +17 1150 0 977 1151 564 155 601 598 0 552 -17 22
5 0 757 243 219 223 1148 661 0 667 +17 314 0 1161 317 309 131 1160 311 0 0 +17 6
2 0 1000 41 436 60 59 544 0 397 -17 436 0 1000 62 46 57 454 433 0 1141 +15 1000
 919 0 1185 991 1186 17 46 0 1000 436 1185 42 1187 412 0 455 +17 454 0 453 451 1
141 42 436 433 0 0 -17 1185 0 1000 46 49 50 543 518 0 1187 -17 1187 0 1086 1188
 455 50 46 412 0 0 -17 455 0 1086 1187 40 42 451 449 0 454 -15 1086 2601 0 1188
 1077 0 17 40 0 1086 455 1188 28 36 417 0 451 -17 1188 0 1086 40 1187 53 52 406
 0 0 -17 36 0 29 30 34 53 40 417 0 539 +17 30 0 29 27 36 55 539 535 0 0 -17 539
 0 1021 52 405 53 30 535 0 1188 +15 1021 904 0 539 1014 0 17 52 0 1021 543 539 5
0 1188 406 0 1185 +17 405 0 1021 539 543 55 463 402 0 30 +17 543 0 1021 405 52 4
7 1185 518 0 463 +17 463 0 459 460 31 47 405 402 0 0 -17 49 0 1000 1185 41 47 46
0 409 0 543 +17 41 0 1000 49 62 35 465 25 0 461 +15 1186 920 0 1189 991 0 17 118
9 0 1186 1189 1189 0 548 540 0 0 -17 548 0 1040 548 548 0 1189 540 0 0 +15 1040
 914 0 548 848 1140 83 1 1090 0 83 1 1082 0 15 1078 2571 0 804 1069 0 17 804 0 1
078 448 806 67 99 430 0 0 -17 448 0 1078 1190 804 88 1191 446 0 0 +17 806 0 1078
 804 1190 97 371 368 0 0 -17 1190 0 1078 806 448 94 90 427 0 371 -17 371 0 805 9
3 803 94 806 368 0 0 +17 93 0 805 375 371 91 96 525 0 423 -17 375 0 805 280 93 1
00 1192 372 0 267 +17 96 0 992 90 423 94 93 525 0 1190 +17 423 0 992 96 81 91 11
93 420 0 1192 +15 992 780 0 96 983 1194 17 81 0 992 423 524 79 1195 376 0 1196 +
17 1193 0 1062 444 1192 79 423 420 0 0 -17 1192 0 1062 1193 102 91 375 372 0 0 -
15 1062 2539 0 102 1053 0 17 102 0 1062 1192 444 100 72 424 0 375 -17 444 0 1062
 102 1193 70 1196 441 0 0 +17 72 0 263 78 267 70 102 424 0 1197 +17 78 0 263 265
 72 76 1197 388 0 1198 +17 267 0 263 72 143 100 280 296 0 0 +17 1197 0 1054 1196
 1199 70 78 388 0 444 -15 1054 2537 0 1199 740 0 17 1196 0 1054 1195 1197 79 444
 441 0 1193 -17 1199 0 1054 1197 1195 76 84 382 0 0 -17 1195 0 1054 1199 1196 82
 81 376 0 0 -17 84 0 1007 1200 1198 82 1199 382 0 524 +15 1007 765 0 1200 999 0
 17 1200 0 1007 75 84 85 524 512 0 1201 -17 1198 0 1007 84 75 76 265 517 0 1199
 -17 524 0 992 81 87 82 1200 512 0 1195 +17 87 0 992 524 90 85 1202 379 0 1200 +
17 90 0 992 87 96 88 1190 427 0 1202 +17 1202 0 1070 1191 1201 88 87 379 0 448 -
15 1070 2569 0 1191 1061 0 17 1191 0 1070 1203 1202 67 448 446 0 804 -17 1201 0
 1070 1202 1203 85 75 385 0 0 -17 1203 0 1070 1201 1191 73 69 391 0 0 -17 75 0 1
007 1198 1200 73 1201 385 0 265 +17 265 0 263 69 78 73 1198 517 0 1203 +17 69 0
 263 99 265 67 1203 391 0 1191 +17 280 0 805 120 375 130 267 296 0 0 -17 120 0 8
05 343 280 118 269 279 0 278 -15 1194 781 0 1204 983 0 17 1204 0 1194 1204 1204
 0 530 521 0 0 -17 530 0 1035 530 530 0 1204 521 0 0 +15 1035 775 0 530 1028 113
8 83 1 1074 0 83 1 1066 0 83 1 1058 0 81 1 1042 1004 285 848 0 850 529 1037 1205
 83 1 1043 0 81 1 529 972 285 521 0 0 547 1042 1206 81 1 1037 1010 285 1028 0 10
31 1042 328 1207 84 32 1205 5db2ec5ff1f14cfff86ba7971e5fb45f81 1 328 1330 285 32
1 0 0 1037 326 1208 84 32 1207 8276fb330b1117ebda1ceb8c9d9b4f3f81 1 326 1331 285
 299 0 0 328 320 1209 84 32 1208 96b98c40e64133547c0cd3f213851f8c81 1 320 1332 2
85 318 0 0 326 324 1210 84 32 1209 ebdac25c311bd8e3ac8b951c2f20d1ff81 1 324 1333
 285 322 0 0 320 582 1211 84 32 1210 aed6be15bc65f80ad7bf31bdca3d3ef881 1 582 13
35 285 554 0 0 324 567 1212 84 32 1211 684a74e5f2640e61f8399f7b97288e1981 1 567
 1339 285 565 0 0 582 609 1213 84 32 1212 b844413f6c385deb8d6111fcad2b1de881 1 6
09 1340 285 607 0 0 567 556 1214 84 32 1213 6a449ef49fa3c194a3218119789f2ff081 1
 556 1341 285 536 0 0 609 575 1215 84 32 1214 9b0333fe3f02a7a92535869d9923ce9181
 1 575 1342 285 573 0 0 556 551 1216 84 32 1215 07f7848b1d75a472196389761e58f630
81 1 551 1343 285 549 0 0 575 600 1217 84 32 1216 fdb9936ff9ef8d9852e9ac8f9729d3
2381 1 600 1344 285 598 0 0 551 560 1218 84 32 1217 4eab92d15e33dad3381ab75f8d33
78ea81 1 560 1345 285 558 0 0 600 563 1219 84 32 1218 6146afc169f605633c463b6770
85304a81 1 563 1348 285 553 0 0 560 591 1220 84 32 1219 5ba228ad12465d4cf1520a7b
bdd24e1f81 1 591 1349 285 589 0 0 563 894 1221 84 32 1220 39c9efdd6f91ff8dfb76ac
ae8ca27d5081 1 894 1352 285 776 0 781 591 885 1222 84 32 1221 e94085399479c72680
3de7b172cfb23581 1 885 1355 285 777 0 780 894 970 1223 84 32 1222 52e1af409753db
e36b1ac183b535075981 1 970 1357 285 795 0 797 885 478 1224 84 32 1223 b69b880632
9c12f9acf27d866d3263b081 1 478 1359 285 794 0 798 970 476 1225 84 32 1224 eef686
957a6cce54433fbf009bd7867584 32 1225 b889125331c73495ffff2f380ce9eeae81 1 547 97
1 285 540 0 0 515 529 1226 84 32 1206 011f3ff75d8a2abc1ec8c0ae18fd36b281 1 515 9
70 285 513 0 0 533 547 1227 84 32 1226 5a0b075d31d5789e728372d88082bb8481 1 533
 969 285 531 0 0 958 515 1228 84 32 1227 e843f0c1d23e517d9fab7419f21f460281 1 95
8 623 285 947 0 951 942 533 1229 84 32 1228 46bcf73f41a60925387f161a3ad9c9c481 1
 942 622 285 931 0 935 950 958 1230 84 32 1229 941022469812ca13760770a7541a99108
1 1 950 621 285 939 0 943 934 942 1231 84 32 1230 ffab7c2e673d386e76ae10cda99566
d981 1 934 620 285 923 0 927 926 950 1232 84 32 1231 725c272e7687269271dc6bf0baf
b7e8381 1 926 619 285 915 0 919 918 934 1233 84 32 1232 3e39a0152cad2a9dafc3df20
0b57bd9e81 1 918 618 285 907 0 911 910 926 1234 84 32 1233 f284da54b1bb3361ae654
2eee83e930581 1 910 617 285 899 0 903 965 918 1235 84 32 1234 2ccedfd79cd39dfb4d
b3f24bf3965aa281 1 965 616 285 955 0 959 902 910 1236 84 32 1235 cb20a3ccba764b7
395d25a6bf369089381 1 902 615 285 891 0 895 492 965 1237 84 32 1236 48a30f0755de
f0f659ab1362367f841d81 1 492 614 285 486 0 0 488 902 1238 84 32 1237 567b33b47ad
3d5315cf8771ec830a70981 1 488 613 285 305 0 0 510 492 1239 84 32 1238 740e855634
6928688e4bce4a129dc9f881 1 510 612 285 505 0 0 484 488 1240 84 32 1239 194ba8158
e6fe20300e9a08a213d99bd81 1 484 611 285 355 0 0 507 510 1241 84 32 1240 c2183dcc
9255c1be53dadc25281b268c81 1 507 610 285 364 0 0 503 484 1242 84 32 1241 41b26b9
2392329bbd74bb91cf231290c81 1 503 609 285 498 0 0 500 507 1243 84 32 1242 76dc57
5a7d0f38962db43a256d59592f81 1 500 608 285 494 0 0 496 503 1244 84 32 1243 d611b
ae411964e5801dfbc74c3461be281 1 496 607 285 490 0 0 313 500 1245 84 32 1244 57e7
6a6f402170fd0920d5f964dce69c81 1 313 401 285 311 0 0 302 496 1246 84 32 1245 e90
07db0a82746fd2e42f004d973bd7a81 1 302 398 285 300 0 0 308 313 1247 84 32 1246 02
1844f28e3c4e8addf1451a6b24a9d281 1 308 397 285 306 0 0 316 302 1248 84 32 1247 4
a183b827f1a98fedf95db2b075517de81 1 316 395 285 304 0 0 346 308 1249 84 32 1248
 d2047cff417b2d120ca279ee6179fbbc81 1 346 390 285 279 0 0 357 316 1250 84 32 124
9 e70d1c7bc9a78321f8cb5f707d671b1481 1 357 389 285 344 0 0 353 346 1251 84 32 12
50 644aadfca411796181e564cfbad08db681 1 353 388 285 351 0 0 349 357 1252 84 32 1
251 31c9d0aebabe9e2a5b96d565ec829c8881 1 349 387 285 347 0 0 986 353 1253 84 32
 1252 237fce0edc5bfb6d4f901bb9ce331b6181 1 986 130 285 976 0 979 335 349 1254 84
 32 1253 fca847cdbe13339441277eed1e200c0b81 1 335 122 285 333 0 0 339 986 1255 8
4 32 1254 ed32b054f2ed84c68da7a9ca2e859b7b81 1 339 120 285 337 0 0 342 335 1256
 84 32 1255 e6a9be0072914b1acada24301185b2ad81 1 342 119 285 340 0 0 331 339 125
7 84 32 1256 b11a3706f329e6e38b4f021ecddddf0d81 1 331 116 285 329 0 0 0 342 1258
 84 32 1257 e2204b05cd56482c1d7e05e1c66b5e7e84 32 1258 9fb5f6504e1220953cdc2c8ac
8d793ba83 1 1038 0 83 1 1032 0 83 1 1025 0 83 1 1018 0 83 1 1011 0 83 1 1004 0 8
3 1 996 0 83 1 988 0 83 1 980 0 83 1 971 0 83 1 966 0 15 963 587 0 511 955 0 17
 511 0 963 511 511 0 1259 505 0 0 +17 1259 0 956 1259 1259 0 511 505 0 0 -15 956
 582 0 1259 947 1260 15 1260 583 0 508 947 0 17 508 0 1260 508 508 0 1261 364 0
 0 +17 1261 0 900 1261 1261 0 508 364 0 0 -15 900 564 0 1261 891 1262 15 1262 52
8 0 1263 891 1264 17 1263 0 1262 1263 1263 0 501 494 0 0 -15 1264 492 0 1265 891
 1266 17 1265 0 1264 1265 1265 0 493 486 0 0 -15 1266 456 0 1267 891 1161 17 126
7 0 1266 1267 1267 0 485 355 0 0 -17 485 0 1268 485 485 0 1267 355 0 0 +15 1268
 475 0 485 899 0 17 493 0 1269 493 493 0 1265 486 0 0 +15 1269 511 0 493 915 0 1
7 501 0 1270 501 501 0 1263 494 0 0 +15 1270 547 0 501 931 0 83 1 960 0 83 1 952
 0 15 948 551 0 504 939 0 17 504 0 948 504 504 0 1271 498 0 0 +17 1271 0 940 127
1 1271 0 504 498 0 0 -15 940 546 0 1271 931 1270 83 1 944 0 83 1 936 0 15 932 51
5 0 497 923 0 17 497 0 932 497 497 0 1272 490 0 0 +17 1272 0 924 1272 1272 0 497
 490 0 0 -15 924 510 0 1272 915 1269 83 1 928 0 83 1 920 0 15 916 479 0 489 907
 0 17 489 0 916 489 489 0 1273 305 0 0 +17 1273 0 908 1273 1273 0 489 305 0 0 -1
5 908 474 0 1273 899 1268 83 1 912 0 83 1 904 0 83 1 896 0 83 1 886 0 83 3 878 .
8 .2 .2 79 255 15 877 SDL/TYSA_COLOUR79 21 874 SDL/TYSA_TRANSLUCENCY83 1 868 0 8
3 1 864 0 83 1 857 0 83 1 851 0 83 1 843 0 83 1 835 0 84 32 823 5b3c7012b7cc6c77
7395b65c0360f80e83 1 799 0 83 1 789 0 83 1 782 0 83 1 770 0 83 1 760 0 83 1 753
 0 83 1 746 0 83 1 734 0 83 1 726 0 81 1 660 2051 285 445 0 0 670 674 1274 84 32
 707 3f7230431c530035b355f8f1c88f390081 1 670 2050 285 668 0 0 690 660 1275 84 3
2 1274 a58ec5db43e45f81c87f7513369a386881 1 690 2049 285 685 0 0 682 670 1276 84
 32 1275 6f119c28ccc5f12facaa11f40cd1d96b81 1 682 2048 285 254 0 0 692 690 1277
 84 32 1276 6e70b0669e678792cb5f96fecabcf2da84 32 1277 6277789899372e178b5143eb1
46b057979 15 706 UGS/ObjectState17 231 0 246 228 234 229 252 275 0 693 +81 1 684
 2046 285 683 0 0 273 692 1278 84 32 694 1211ae233c5f3fa272b47577073d64e581 1 27
3 2045 285 251 0 0 679 684 1279 84 32 1278 f88245f18abcb04da2cce7dbf7eb69f481 1
 679 2044 285 677 0 0 666 273 1280 84 32 1279 7f852c0344b32127d72fc3f91219c4be81
 1 666 2043 285 664 0 0 259 679 1281 84 32 1280 a88d760cc94e58b64570ab20edac03c5
81 1 259 2042 285 248 0 0 688 666 1282 84 32 1281 c9d0e22f226df4ec0626ebacaa0940
da81 1 688 2041 285 261 0 0 287 259 1283 84 32 1282 3d43be9c33656d40f84b74f23731
ed8e81 1 287 2040 285 282 0 0 281 688 1284 84 32 1283 5b570e7ec6e0bdd925f5a7c5bc
71587784 32 1284 67fdff7e32cf0a7d5240b9d2e3617df681 1 474 2678 285 544 0 0 472 5
42 1285 81 1 542 2679 285 518 0 0 474 527 1286 84 32 1285 d8db0337dea5b7497c7b96
262b2dd4b081 1 527 2680 285 525 0 0 542 520 1287 84 32 1286 c3ab63d56fb7b56af8e1
79bb0f6f9dab81 1 520 2681 285 517 0 0 527 538 1288 84 32 1287 c197d7d53577959f58
5b20ca93a3f54281 1 538 2682 285 535 0 0 520 523 1289 84 32 1288 6bee27119d00fa13
ba80cb3cc5b76dd881 1 523 2683 285 512 0 0 538 404 1290 84 32 1289 460c500b49800f
9c6cd0dbb9ad23612c81 1 404 2684 285 402 0 0 523 422 1291 84 32 1290 164ef24af3ad
4bcf9b97ea672f3cefa581 1 422 2685 285 420 0 0 404 370 1292 84 32 1291 a8a9c0c88d
8f4cbd02e6d8dccaf8611481 1 370 2686 285 368 0 0 422 378 1293 84 32 1292 da01157a
a84250e7da3a2a50925ae2d681 1 378 2687 285 376 0 0 370 381 1294 84 32 1293 c47b4e
e86f95d681a1cd165d646cfc6381 1 381 2688 285 379 0 0 378 456 1295 84 32 1294 b502
bfac157532fe470d4d55cc970f6f84 32 1295 329532bc2d6ca5a6aeb126c9f7b8ca8684 32 480
 d62760cad5e61718ff9f25bed6054eae84 32 475 4b881ecd4675397f946bf0d437cc96c181 1
 384 2690 285 382 0 0 456 447 1296 84 32 458 3540204672256bf9243917f84cd3121881
 1 447 2691 285 446 0 0 384 23 1297 84 32 1296 d7cf58cc9bc8088c67e3d15dde77832f8
1 1 23 2692 285 9 0 0 447 411 1298 84 32 1297 2bf7ef3239d53b27a2eb8405942e30f581
 1 411 2693 285 409 0 0 23 419 1299 84 32 1298 26259da3a3824cf65abbff953cb26ebe8
1 1 419 2694 285 417 0 0 411 438 1300 84 32 1299 bb7c8c505cd96507289dece67b01df1
181 1 438 2695 285 39 0 0 419 396 1301 84 32 1300 2ccda05c93a7e1ccdf2d71c22a71be
4781 1 396 2696 285 394 0 0 438 426 1302 84 32 1301 7ef103f71ae9287466ed19fe41f0
2c4281 1 426 2697 285 424 0 0 396 387 1303 84 32 1302 cfb64f471fd14997bf74bd5f04
82e8f281 1 387 2698 285 385 0 0 426 393 1304 84 32 1303 b25375381120f155f3246c82
c9a85ef381 1 393 2699 285 391 0 0 387 432 1305 84 32 1304 147049d69bdcbacdf673db
cde8ed50ff81 1 432 2700 285 430 0 0 393 443 1306 84 32 1305 4b03f2c612897335f74c
e2fda238766281 1 443 2701 285 441 0 0 432 416 1307 84 32 1306 c33392e5189d84d3b5
7a2f588ea81d1381 1 416 2702 285 32 0 0 443 414 1308 84 32 1307 ebf6f5d46598129e8
7d422eaa5dfe71b81 1 414 2703 285 412 0 0 416 439 1309 84 32 1308 9b0e9b9bd334f6a
9d669eae1bb0c61a481 1 439 2704 285 25 0 0 414 390 1310 84 32 1309 9596dd4753fbf6
c18799c60b4f76f26881 1 390 2705 285 388 0 0 439 400 1311 84 32 1310 91bc832c12d7
638a52f50525db88e0ff81 1 400 2706 285 398 0 0 390 435 1312 84 32 1311 c7ab51d789
251173ad167bf90cd0a59681 1 435 2707 285 433 0 0 400 429 1313 84 32 1312 6cacd713
ae3b68cbfd4f4f6afd0370fd81 1 429 2708 285 427 0 0 435 374 1314 84 32 1313 46c2be
c71037f541b0dd9d1cfeef80d081 1 374 2709 285 372 0 0 429 450 1315 84 32 1314 5cb8
614bad526f678227553e2530c5df84 32 1315 8c787ad992f325219bf6fe51acf1313d84 32 452
 22c03a177129a4fdde9d51d51de0b2f484 32 288 2651f9a97b683a2dba6f2d04a77e439019 16
 92 0 1 0 8 4 S0 74 4 CI16 index_map_offset0 0 1 dCCZ20 14 6 0 0 1088 1316 12 11
00 1097 2 0 0 0 0 0 0 0 0 0 0 0 0 0 0 81 2 1316 2673 1317 1 0 12 0 0 1318 1319 8
1 1 12 2729 1320 1 1316 2 0 0 1321 80 1 1320 1322 1323 9000 0 0 0 0 3 5 0 0 0 FF
TFFFFFFFFFFF1 82 255 1 1321 9 79 7 1323 body_id80 2 1317 1324 1325 8004 0 0 0 0
 3 5 0 0 0 FFTFFFFFFFFFFF2 3 83 1 1318 7830.64 84 8 1319 Kg/Cu M 79 16 1325 SDL/
TYSA_DENSITY80 1 11 1326 1327 9000 0 0 0 0 3 5 0 0 0 FFTFFFFFFFFFFF1 82 1 13 155
 79 24 1327 UG2/BODY_COLOR_ATTRIBUTE1 0 
